name GIL02_free2.mot
datacolumns 153
datarows 4
range 0.12500001 0.15000001
endheader

                time	           pelvis_tx	           pelvis_ty	           pelvis_tz	         pelvis_tilt	         pelvis_list	     pelvis_rotation	       hip_flexion_r	     hip_adduction_r	      hip_rotation_r	        knee_angle_r	       ankle_angle_r	    subtalar_angle_r	         mtp_angle_r	       hip_flexion_l	     hip_adduction_l	      hip_rotation_l	        knee_angle_l	       ankle_angle_l	    subtalar_angle_l	         mtp_angle_l	    lumbar_extension	      lumbar_bending	     lumbar_rotation	     ground_force_vx	     ground_force_vy	     ground_force_vz	     ground_force_px	     ground_force_py	     ground_force_pz	     ground_force_vx	     ground_force_vy	     ground_force_vz	     ground_force_px	     ground_force_py	     ground_force_pz	     ground_torque_x	     ground_torque_y	     ground_torque_z	     ground_torque_x	     ground_torque_y	     ground_torque_z	    ground_marker_px	    ground_marker_py	    ground_marker_pz	    ground_marker_px	    ground_marker_py	    ground_marker_pz	    ground_marker_px	    ground_marker_py	    ground_marker_pz	    ground_marker_px	    ground_marker_py	    ground_marker_pz	    ground_marker_px	    ground_marker_py	    ground_marker_pz	    ground_marker_px	    ground_marker_py	    ground_marker_pz	    ground_marker_px	    ground_marker_py	    ground_marker_pz	    ground_marker_px	    ground_marker_py	    ground_marker_pz	    ground_marker_px	    ground_marker_py	    ground_marker_pz	    ground_marker_px	    ground_marker_py	    ground_marker_pz	    ground_marker_px	    ground_marker_py	    ground_marker_pz	    ground_marker_px	    ground_marker_py	    ground_marker_pz	    ground_marker_px	    ground_marker_py	    ground_marker_pz	    ground_marker_px	    ground_marker_py	    ground_marker_pz	    ground_marker_px	    ground_marker_py	    ground_marker_pz	    ground_marker_px	    ground_marker_py	    ground_marker_pz	    ground_marker_px	    ground_marker_py	    ground_marker_pz	    ground_marker_px	    ground_marker_py	    ground_marker_pz	    ground_marker_px	    ground_marker_py	    ground_marker_pz	    ground_marker_px	    ground_marker_py	    ground_marker_pz	    ground_marker_px	    ground_marker_py	    ground_marker_pz	    ground_marker_px	    ground_marker_py	    ground_marker_pz	    ground_marker_px	    ground_marker_py	    ground_marker_pz	    ground_marker_px	    ground_marker_py	    ground_marker_pz	    ground_marker_px	    ground_marker_py	    ground_marker_pz	    ground_marker_px	    ground_marker_py	    ground_marker_pz	    ground_marker_px	    ground_marker_py	    ground_marker_pz	    ground_marker_px	    ground_marker_py	    ground_marker_pz	    ground_marker_px	    ground_marker_py	    ground_marker_pz	    ground_marker_px	    ground_marker_py	    ground_marker_pz	    ground_marker_px	    ground_marker_py	    ground_marker_pz	    ground_marker_px	    ground_marker_py	    ground_marker_pz	    ground_marker_px	    ground_marker_py	    ground_marker_pz	    ground_marker_px	    ground_marker_py	    ground_marker_pz	    ground_marker_px	    ground_marker_py	    ground_marker_pz	    ground_marker_px	    ground_marker_py	    ground_marker_pz	    ground_marker_px	    ground_marker_py	    ground_marker_pz	
          0.12500001	          1.19315612	          0.94668281	         -0.21779007	         -0.03678226	         -2.60829449	          1.41190076	         20.24525833	          1.50063014	          7.28771782	        -15.55570412	         -3.44061875	          0.00000000	          0.00000000	         -9.61672115	         -3.01922679	         -0.60061568	        -35.29072189	        -26.46968460	          0.00000000	          0.00000000	         -7.20153475	          9.16992378	         -5.52929020	       -110.00412517	        648.69336161	        -24.04158902	          1.29132166	          0.00000000	         -0.15210434	          0.00000000	          0.00000000	          0.00000000	          1.75258521	          0.00000000	         -0.22132043	          0.00000000	         -1.31291797	          0.00000000	          0.00000000	          0.00000000	          0.00000000	          1.11216784	          0.88226855	         -0.20784473	          1.10928142	          0.86297619	         -0.13635509	          1.10422909	          0.85705602	         -0.28658295	          1.25193286	          0.47403419	         -0.13668872	          1.03326046	          0.44325873	         -0.29003310	          1.28003764	          0.07005003	         -0.15318172	          0.75232726	          0.16227247	         -0.28328928	          1.19315612	          0.94668281	         -0.21779007	          1.19713044	          0.95133996	         -0.09961252	          1.18918180	          0.94202572	         -0.33596763	          1.00671506	          0.98768038	         -0.17803234	          1.01015449	          0.98418230	         -0.26352406	          1.26136577	          0.47744441	         -0.07905503	          1.03122795	          0.44409057	         -0.34799153	          1.22446251	          0.46927875	         -0.19198661	          1.05308163	          0.44162744	         -0.22484952	          1.27340651	          0.06798049	         -0.11378951	          0.73635834	          0.17746620	         -0.31546289	          1.29070258	          0.08483004	         -0.18115732	          0.76350188	          0.16970700	         -0.25648612	          0.98902309	          1.40716207	         -0.19511400	          1.11534035	          1.33083415	         -0.14454833	          1.12409949	          1.34235442	         -0.25111678	          1.10221732	          1.34380317	         -0.19580995	          1.18845296	          1.18359780	         -0.21763447	          1.27422345	          0.58142132	         -0.00469982	          1.21145916	          0.51395833	         -0.31114486	          1.26310706	          0.65044373	         -0.06767715	          1.14609838	          0.58107197	         -0.34081182	          1.28358102	          0.56821078	         -0.09649368	          1.11471343	          0.49892533	         -0.33114234	          1.29596055	          0.19951867	         -0.02548547	          0.84278226	          0.26593769	         -0.40355453	          1.27998471	          0.16646677	         -0.09894942	          0.80912322	          0.24515615	         -0.33191347	          1.40627110	          0.04189756	         -0.13742693	          0.77426857	          0.04488358	         -0.27141148	
          0.13333334	          1.20420718	          0.94812047	         -0.21681903	         -0.05532837	         -2.69105315	          1.54007936	         19.40003777	          1.59877574	          8.05337906	        -15.23293018	         -2.89392376	          0.00000000	          0.00000000	         -8.29156113	         -3.33957314	         -1.26502252	        -37.57861710	        -29.08762550	          0.00000000	          0.00000000	         -6.90669012	          9.25894356	         -5.49800301	       -106.70773737	        665.27102761	        -25.72843846	          1.29177673	          0.00000000	         -0.15184436	          0.00000000	          0.00000000	          0.00000000	          1.75399902	          0.00000000	         -0.22140390	          0.00000000	         -1.35198877	          0.00000000	          0.00000000	          0.00000000	          0.00000000	          1.12378001	          0.88460577	         -0.20712303	          1.12049961	          0.86452687	         -0.13509649	          1.11507130	          0.85846680	         -0.28530568	          1.25698447	          0.47409305	         -0.13583368	          1.05331731	          0.44248581	         -0.29082748	          1.28056920	          0.06999479	         -0.15325046	          0.76777935	          0.16665508	         -0.28484198	          1.20420718	          0.94812047	         -0.21681903	          1.20847201	          0.95288157	         -0.09880763	          1.19994247	          0.94335943	         -0.33483043	          1.01779592	          0.98935974	         -0.17687531	          1.02080071	          0.98559260	         -0.26236591	          1.26733673	          0.47760335	         -0.07836403	          1.05045199	          0.44367999	         -0.34874436	          1.22797418	          0.46978664	         -0.19020604	          1.07412076	          0.43963817	         -0.22581178	          1.27389288	          0.06790768	         -0.11386684	          0.75198013	          0.18231523	         -0.31687543	          1.29101157	          0.08479353	         -0.18124846	          0.77971786	          0.17295432	         -0.25843689	          0.99951184	          1.40835154	         -0.19383463	          1.12662411	          1.33237255	         -0.14372711	          1.13495922	          1.34396100	         -0.24974552	          1.11303735	          1.34544814	         -0.19452740	          1.20013535	          1.18549132	         -0.21688369	          1.28291678	          0.58195126	         -0.00443419	          1.23001635	          0.51611990	         -0.31400126	          1.27240300	          0.65100408	         -0.06771214	          1.16240585	          0.58169734	         -0.34208855	          1.29068148	          0.56790203	         -0.09632070	          1.13278210	          0.49916780	         -0.33267105	          1.29787600	          0.19877613	         -0.02526428	          0.85942543	          0.26920649	         -0.40483218	          1.28151810	          0.16615134	         -0.09882364	          0.82642502	          0.24749707	         -0.33371899	          1.40640056	          0.04166884	         -0.13757029	          0.78335100	          0.04775304	         -0.27318102	
          0.14166668	          1.21495819	          0.94941342	         -0.21618670	         -0.06647682	         -2.76142645	          1.76165795	         18.49288368	          1.58997512	          8.74756050	        -14.75531292	         -2.43149424	          0.00000000	          0.00000000	         -6.89048004	         -3.59136939	         -1.70509124	        -39.89651489	        -30.43280220	          0.00000000	          0.00000000	         -6.69174576	          9.26540661	         -5.69486475	       -101.80899944	        677.09671717	        -28.63062229	          1.29221594	          0.00000000	         -0.15145740	          0.00000000	          0.00000000	          0.00000000	          1.75544458	          0.00000000	         -0.22154703	          0.00000000	         -1.36220532	          0.00000000	          0.00000000	          0.00000000	          0.00000000	          1.13386667	          0.88533366	         -0.20633236	          1.13154936	          0.86588359	         -0.13409416	          1.12551272	          0.85976654	         -0.28427780	          1.26144648	          0.47404835	         -0.13482840	          1.07362700	          0.44197986	         -0.29159394	          1.28112948	          0.06995055	         -0.15317796	          0.78379285	          0.17117129	         -0.28599566	          1.21495819	          0.94941342	         -0.21618670	          1.21969700	          0.95421547	         -0.09828875	          1.21021926	          0.94461131	         -0.33408466	          1.02869356	          0.99083859	         -0.17557718	          1.03120649	          0.98687744	         -0.26103216	          1.27270627	          0.47767371	         -0.07753684	          1.07003248	          0.44343966	         -0.34946406	          1.23295510	          0.47073713	         -0.18922526	          1.09547901	          0.43710849	         -0.22746000	          1.27424014	          0.06782837	         -0.11383291	          0.76821601	          0.18718161	         -0.31796491	          1.29102671	          0.08467458	         -0.18116479	          0.79611450	          0.17698289	         -0.25986236	          1.00957036	          1.40982854	         -0.19249593	          1.13746715	          1.33407867	         -0.14254966	          1.14568746	          1.34563816	         -0.24861614	          1.12373793	          1.34703422	         -0.19340667	          1.21143603	          1.18741298	         -0.21569251	          1.29110646	          0.58240950	         -0.00410565	          1.24859047	          0.51872724	         -0.31653950	          1.28074205	          0.65129685	         -0.06707597	          1.17882180	          0.58262742	         -0.34324330	          1.29778171	          0.56809384	         -0.09595489	          1.15131831	          0.49911529	         -0.33434781	          1.29908049	          0.19806908	         -0.02479604	          0.87676543	          0.27231824	         -0.40588465	          1.28187716	          0.16600004	         -0.09815165	          0.84412539	          0.25008717	         -0.33526087	          1.40641916	          0.04149470	         -0.13765410	          0.79478246	          0.05115450	         -0.27564004	
          0.15000001	          1.22542310	          0.95060825	         -0.21586716	         -0.05969810	         -2.83374095	          2.05153918	         17.52356720	          1.51243806	          9.34224224	        -14.16088200	         -2.02228379	          0.00000000	          0.00000000	         -5.44154835	         -3.78732371	         -1.92302251	        -42.20281601	        -30.54449272	          0.00000000	          0.00000000	         -6.56990337	          9.52958965	         -6.38639259	        -96.05111821	        682.38551073	        -32.22240890	          1.29259998	          0.00000000	         -0.15096146	          0.00000000	          0.00000000	          0.00000000	          1.75681860	          0.00000000	         -0.22176157	          0.00000000	         -1.34276953	          0.00000000	          0.00000000	          0.00000000	          0.00000000	          1.14320278	          0.88530397	         -0.20534362	          1.14243197	          0.86710382	         -0.13332665	          1.13561296	          0.86096084	         -0.28347573	          1.26541841	          0.47392306	         -0.13371979	          1.09411192	          0.44182721	         -0.29232159	          1.28165257	          0.06990927	         -0.15300710	          0.80040586	          0.17574789	         -0.28672567	          1.22542310	          0.95060825	         -0.21586716	          1.23077524	          0.95542973	         -0.09801857	          1.22007096	          0.94578671	         -0.33371577	          1.03939009	          0.99215132	         -0.17419571	          1.04142010	          0.98801738	         -0.25960103	          1.27754033	          0.47765765	         -0.07661143	          1.08992112	          0.44346258	         -0.35014689	          1.23793495	          0.47098497	         -0.18716562	          1.11774087	          0.43366823	         -0.23038334	          1.27445841	          0.06774461	         -0.11371897	          0.78505385	          0.19202209	         -0.31867042	          1.29092431	          0.08458241	         -0.18094754	          0.81226689	          0.18171230	         -0.26047510	          1.01995409	          1.41133916	         -0.19156213	          1.14754784	          1.33540773	         -0.14093183	          1.15660620	          1.34741580	         -0.24793246	          1.13435781	          1.34857190	         -0.19245084	          1.22208464	          1.18903220	         -0.21452400	          1.29878545	          0.58278513	         -0.00372047	          1.26714730	          0.52182364	         -0.31866720	          1.28848135	          0.65170920	         -0.06668353	          1.19544566	          0.58381093	         -0.34405696	          1.30443740	          0.56851566	         -0.09504773	          1.17096543	          0.49938717	         -0.33644196	          1.29980254	          0.19745021	         -0.02416277	          0.89466041	          0.27539656	         -0.40667477	          1.28155196	          0.16595641	         -0.09718859	          0.86224765	          0.25367156	         -0.33562192	          1.40636766	          0.04136113	         -0.13769379	          0.80871648	          0.05492167	         -0.27874708	
